# xmcd
#
# Track frame offsets:
#	150
#	14700
#	34153
#	51675
#	72399
#	93432
#	110720
#	124743
#	143324
#	160344
#	172844
#	192674
#	210305
#	225223
#	247097
#	262662
#	280248
#	293940
#	315753
#
# Disc length: 4407 seconds
#
# Revision: 0
# Processed by: cddbd v1.5.2PL0 Copyright (c) Steve Scherf et al.
# Submitted via: EasyCDDAExtractor 16.0.6.1
#
DISCID=0f113513
DTITLE=Συλλογικός δίσκος - Σμύρνη-Εστουδιαντίνα Ν. Ιωνίας
DYEAR=2004
DGENRE=Παραδοσιακή
TTITLE0=Άνευ ερμηνευτού - Εμβατήριο Σμύρνης [οργανικό]
TTITLE1=Λάλεζας Παναγιώτης - Μανές της Καληνυχτιάς (Ήρθε η ώρα και η στιγμή)
TTITLE2=Λαϊκή χορωδία-σύν. Ευφωνία - Δε σε θέλω πια
TTITLE3=Νταλάρας Γιώργος - Μάτια μου
TTITLE4=Γλυκερία - Η Μαρίτσα η Σμυρνιά
TTITLE5=Θαλασσινός Παντελής - Κατεργάρα Ειρήνη
TTITLE6=Ιακωβίδης Αγάθωνας - Αγιοθοδωρίτισσα
TTITLE7=Βιτάλη Ελένη-Πάππος Μανώλης - Ο Μανώλης
TTITLE8=Τσέρτος Μπάμπης - Ζουρλοπαινεμένης γέννα
TTITLE9=Ανευ ερμηνευτού - Εμβατήριο φλόγα [οργανικό]
TTITLE10=Αηδονίδης Χρόνης - Σαν της Σμύρνης το γιαγκίνι (Το ολοκαύτωμα)
TTITLE11=Παπαδοπούλου Κατερίνα - Μην ορκίζεσαι βρε ψεύτρα
TTITLE12=Τσιαμούλης Χρίστος-Λαϊκή χορ.-σύν. Ευφωνία - Τικ-τακ
TTITLE13=Παπάζογλου Σοφία - Πασαλιμανιώτισσα
TTITLE14=Γαϊτάνος Πέτρος - Το σαλβάρι του Κιορόγλου
TTITLE15=Μαριώ - Μανταλένα (Ο μυστήριοε ζεϊμπέκικος χορός)
TTITLE16=Νταλάρας Γιώργος-Λαϊκή χορ.-σύν. Ευφωνία - Καροτσέρης
TTITLE17=Άνευ ερμηνευτού - Σουλτανί Γεγκιάχ [οργανικό]
TTITLE18=Καραγιάννη Ειρήνη - Ο στεναγμός της Σμύρνης
EXTD=
EXTT0=
EXTT1=
EXTT2=
EXTT3=
EXTT4=
EXTT5=
EXTT6=
EXTT7=
EXTT8=
EXTT9=
EXTT10=
EXTT11=
EXTT12=
EXTT13=
EXTT14=
EXTT15=
EXTT16=
EXTT17=
EXTT18=
PLAYORDER=
